# xmcd
#
# Track frame offsets: 
#        150
#        12908
#        26179
#        37272
#        49334
#        61633
#        73549
#        83248
#        94232
#        107612
#        117243
#        128914
#        145304
#        160238
#        173266
#        187278
#        199064
#        215254
#        227284
#        241669
#        255109
#        265431
#        288251
#        302072
#        313513
#        325705
#
# Disc length: 4538 seconds
#
# Revision: 0
# Processed by: cddbd v1.5.2PL0 Copyright (c) Steve Scherf et al.
# Submitted via: ExactAudioCopy v1.0b1
#
DISCID=6511b81a
DTITLE=Johnny Paycheck - The Outlaw's Prayer: Epic Country Hits 1971-1
DTITLE=981
DYEAR=2012
DGENRE=Country
TTITLE0=She's All I Got 
TTITLE1=Someone To Give My Love To 
TTITLE2=Let's All Go Down To The River (With Jody Miller) 
TTITLE3=Love Is A Good Thing 
TTITLE4=Somebody Loves Me
TTITLE5=Something About You I Love 
TTITLE6=Mr Lovemaker 
TTITLE7=Song And Dance Man 
TTITLE8=My Part Of Forever 
TTITLE9=Loving You Beats All I've Ever Seen 
TTITLE10=The Feminine Touch 
TTITLE11=11 Months And 29 Days 
TTITLE12=I Can See Me Lovin' You Again 
TTITLE13=Slide Off Of Your Satin Sheets 
TTITLE14=I'm The Only Hell (Mama Ever Raised) 
TTITLE15=Take This Job And Shove It 
TTITLE16=Colorado Kool - Aid 
TTITLE17=Georgia In A Jug 
TTITLE18=Me And The I.R.S. 
TTITLE19=Friend, Lover, Wife 
TTITLE20=Maybellene (With George Jones) 
TTITLE21=The Outlaw's Prayer 
TTITLE22=Drinkin' And Drivin' 
TTITLE23=Fifteen Beers 
TTITLE24=You Better Move On (With George Jones) 
TTITLE25=I Can't Hold Myself In Line (With Merle Haggard)  
EXTD=
EXTT0=
EXTT1=
EXTT2=
EXTT3=
EXTT4=
EXTT5=
EXTT6=
EXTT7=
EXTT8=
EXTT9=
EXTT10=
EXTT11=
EXTT12=
EXTT13=
EXTT14=
EXTT15=
EXTT16=
EXTT17=
EXTT18=
EXTT19=
EXTT20=
EXTT21=
EXTT22=
EXTT23=
EXTT24=
EXTT25=
PLAYORDER=
